Simulation
nRows=46
nColumns=15
endheader
time  TH_x TH_y TH_z SC_y  SC_z  SC_x  AC_y  AC_z  AC_x  GH_y  GH_z  GH_yy  EL_x  PS_y
0.0  0.000000  0.000000  0.000000  -22.624245570684806  4.436710909737394  -6.396181854991855  56.80930508665454  8.790826558067344  7.363165601325393  -157.1758395338778  4.115692318944227  -165.2221722667784  20.87233449504725  120.000000
0.04016479400749064  0.000000  0.000000  0.000000  -22.644876897964085  4.459191327643267  -6.373917321124445  56.77586034844067  8.845309491279444  7.350557516993437  -156.2503455092287  3.9747430659785135  -166.24509794591145  20.350220795278034  120.000000
0.08032958801498127  0.000000  0.000000  0.000000  -22.708545288490107  4.526197673318931  -6.312994116017209  56.67090470493136  9.001294515024737  7.308062610248495  -152.96437338825612  3.5676120392714865  -169.82718795184869  19.836071384354184  120.000000
0.12049438202247191  0.000000  0.000000  0.000000  -22.82499358876314  4.636758683214783  -6.229171309962745  56.48450787903653  9.236920958139418  7.2323253458142975  -145.476140165658  2.952707621870576  -177.81675549802625  19.3142058099266  120.000000
0.16065917602996255  0.000000  0.000000  0.000000  -23.0085706696783  4.785465913413144  -6.141552923583474  56.21018059558986  9.524924263475107  7.126534413915518  -129.03424302976364  2.2746309300938434  165.03228888324355  18.77365716066563  120.000000
0.20082397003745317  0.000000  0.000000  0.000000  -23.27206725573734  4.964565321651514  -6.064212289099237  55.848096801089184  9.841993798583399  6.997463761944948  -96.15455753521508  1.9187340480422184  131.23987621372706  18.208129984977987  120.000000
0.24098876404494382  0.000000  0.000000  0.000000  -23.626919080669172  5.169029729684777  -6.001862088046728  55.40534135172711  10.170380699498809  6.853912655809575  -59.729758468863835  2.4266147971621854  93.70885086750611  17.617666288603896  120.000000
0.28115355805243447  0.000000  0.000000  0.000000  -24.08021360337025  5.3973777532579374  -5.94944404844475  54.896659136958135  10.498828269573403  6.702209284925196  -39.375099251929626  3.6679948418910286  72.06940585080896  17.00664339899279  120.000000
0.3213183520599251  0.000000  0.000000  0.000000  -24.633498612813554  5.651954881223629  -5.893571046613623  54.34015708004463  10.82124556182643  6.547045689444529  -29.37018053842357  5.297117148169017  60.62038310378023  16.382720758171683  120.000000
0.3614831460674157  0.000000  0.000000  0.000000  -25.283790643751534  5.9356040156886  -5.817993228771247  53.754816057968064  11.135849798881516  6.3926299662686645  -23.931887554144364  7.169393605911284  53.60100725330497  15.754699989494089  120.000000
0.40164794007490634  0.000000  0.000000  0.000000  -26.02443740351575  6.25054713253353  -5.7071651445952085  53.159562369901465  11.442879342053367  6.242999692756676  -20.69111250490201  9.22730371726167  48.666943584577304  15.131975746360721  120.000000
0.441812734082397  0.000000  0.000000  0.000000  -26.846013738227054  6.598135609109771  -5.5444049854275725  52.5718584443596  11.740577273235964  6.101186028898695  -18.655858864546456  11.439174282330002  44.85260810006665  14.523552828579085  120.000000
0.48197752808988764  0.000000  0.000000  0.000000  -27.7369301335812  6.978208128194594  -5.31141870462992  52.008269549420724  12.023671049972624  5.968081377036734  -17.357481808059916  13.780424066286004  41.71661859574381  13.937217194264159  120.000000
0.5221423220973783  0.000000  0.000000  0.000000  -28.683834359042528  7.388582996591685  -4.990773080301272  51.4842834607781  12.284132944344634  5.843341278289676  -16.54726310952486  16.22669993263494  39.037678942997985  13.379192213884153  120.000000
0.5623071161048689  0.000000  0.000000  0.000000  -29.672496860252057  7.825187965326334  -4.56954784248841  51.01389418374179  12.514385003634832  5.727450970702711  -16.076779678049895  18.75181762134645  36.6938779405976  12.853668711607638  120.000000
0.6024719101123596  0.000000  0.000000  0.000000  -30.688251234610114  8.283423999402514  -4.043654808513395  50.60881824573655  12.71215756646419  5.624734131293457  -15.846599596445197  21.328515057629783  34.61037938693866  12.362736073340622  120.000000
0.6426367041198502  0.000000  0.000000  0.000000  -31.71656495267666  8.758850754079921  -3.4155059434898822  50.27819946646067  12.880257800128437  5.542494709543739  -15.784113983195176  23.930132120759847  32.73607356195755  11.90603834291908  120.000000
0.6828014981273408  0.000000  0.000000  0.000000  -32.743434165294  9.247159769572518  -2.688178523349054  50.028479905040975  13.02308040954066  5.4877852739634605  -15.834393796610073  26.531505839355653  31.033556040145907  11.480644426758033  120.000000
0.7229662921348314  0.000000  0.000000  0.000000  -33.7552852039087  9.74398078570365  -1.8654344622586525  49.862784356435  13.147323852975779  5.467640666636473  -15.955875803426387  29.109129922438918  29.474210707621356  11.081206003131904  120.000000
0.7631310861423221  0.000000  0.000000  0.000000  -34.73877151780507  10.244708251862356  -0.9512550481989144  49.7807970267319  13.261739753574014  5.488784838340294  -16.117553596579167  31.641320460523975  28.035483737137124  10.70042706305003  120.000000
0.8032958801498127  0.000000  0.000000  0.000000  -35.68061867542535  10.743982735692557  0.05063171305673023  49.77857670805642  13.375770990581772  5.556770513375913  -16.297866209405885  34.108278918974904  26.700282126412556  10.33003911342168  120.000000
0.8434606741573034  0.000000  0.000000  0.000000  -36.56839010055341  11.235361027529734  1.1353623311106669  49.84851059914859  13.498367675417228  5.675726609242207  -16.48375677713781  36.49202633509429  25.457043817690526  9.962074158092081  120.000000
0.883625468164794  0.000000  0.000000  0.000000  -37.39146927725256  11.711948922770004  2.295583550716451  49.97999102156716  13.63664400603679  5.847199015975708  -16.669591876453637  38.77667157895695  24.299774670657303  9.590386313456316  120.000000
0.9237902621722847  0.000000  0.000000  0.000000  -38.142463752330336  12.166872342200667  3.520670156541919  50.160095779262626  13.794690245341368  6.069650650136428  -16.85508208790831  40.94938068337903  23.22730930838176  9.2121058794479  120.000000
0.9639550561797753  0.000000  0.000000  0.000000  -38.817979303743606  12.593482559944611  4.796499513184196  50.37419239709713  13.972350129737652  6.339138450019433  -17.04296818045678  43.00089921423152  22.242268807316506  8.82882076752448  120.000000
1.004119850187266  0.000000  0.000000  0.000000  -39.41799608039957  12.98593014615621  6.105159060132288  50.60728875985415  14.165110637384585  6.649376293689494  -17.237041922961428  44.92526390896388  21.3498476525535  8.44678755868668  120.000000
1.0442846441947566  0.000000  0.000000  0.000000  -39.945287286543795  13.339872579163206  7.425488929244527  50.84534395916897  14.364812561084689  6.99194067161535  -17.44054402561015  46.71948660194806  20.556409564564714  8.076142201625728  120.000000
1.0844494382022472  0.000000  0.000000  0.000000  -40.40471363038354  13.653058532267774  8.734066819890703  51.07634750222541  14.560951004428851  7.356523557360396  -17.655337073985415  48.38289596804779  19.86817056314171  7.7293549753523  120.000000
1.1246142322097379  0.000000  0.000000  0.000000  -40.802485751002486  13.925492651181925  10.006431321401754  51.2911795721022  14.742145870648336  7.731176206523049  -17.881547419705164  49.91632327792483  19.290006843485603  7.41944578909012  120.000000
1.1647790262172284  0.000000  0.000000  0.000000  -41.14548231515453  14.159255686082222  11.218367866633931  51.48411183695404  14.89744873862951  8.102657489769674  -18.117611180572187  51.32112238098357  18.824418169829798  7.15824443178301  120.000000
1.2049438202247191  0.000000  0.000000  0.000000  -41.44064020599154  14.358061178717842  12.34713555819893  51.65280148979667  15.017347839038935  8.45688852649264  -18.36044498116396  52.598472442326305  18.47071436011009  6.9549697459065305  120.000000
1.2451086142322096  0.000000  0.000000  0.000000  -41.69455935105248  14.526698622553802  13.372864027592831  51.79771397512027  15.094641170106454  8.77972330949074  -18.60563790211944  53.74918727256685  18.224430484875356  6.815225381049815  120.000000
1.2852734082397004  0.000000  0.000000  0.000000  -41.91323354783373  14.67044935986847  14.279956807266064  51.92107435230149  15.125129362536294  9.058030312673175  -18.84755372609167  54.77421338766824  18.076951357247335  6.740275518063991  120.000000
1.325438202247191  0.000000  0.000000  0.000000  -42.1020338631811  14.794376633732972  15.058407667282234  52.0255745342232  15.108026254040894  9.281068252044514  -19.079430820344186  55.6753809982382  18.015361328089533  6.726528417219821  120.000000
1.3656029962546816  0.000000  0.000000  0.000000  -42.26574106897695  14.902625886377068  15.704562757541881  52.113183517169155  15.045998265549795  9.441616781999455  -19.293459397632027  56.45611001458628  18.022522373901936  6.765201080899121  120.000000
1.4057677902621724  0.000000  0.000000  0.000000  -42.40862319630537  14.997898780326755  16.22121380409019  52.18437843321392  14.944861394471252  9.536617646196168  -19.48102217452712  57.12169083132279  18.077596623648237  6.842529025567649  120.000000
1.4459325842696629  0.000000  0.000000  0.000000  -42.534427737503066  15.081290160674351  16.616788396360445  52.23797086763616  14.812868168642902  9.566990673301566  -19.63302616747968  57.678955782454  18.157093968839703  6.940852125245634  120.000000
1.4860973782771536  0.000000  0.000000  0.000000  -42.64620764733725  15.152476333179587  16.903730228596608  52.27151618349221  14.659657286362584  9.536768609287106  -19.740409420356976  58.135250213286604  18.23647029047895  7.040712451100363  120.000000
1.5262621722846441  0.000000  0.000000  0.000000  -42.745937885905676  15.210120268498152  17.09634990912802  52.282133462874675  14.495031262279692  9.451743502903664  -19.794666379799068  58.49680627234995  18.291953521417106  7.123594194579394  120.000000
1.5664269662921348  0.000000  0.000000  0.000000  -42.83400292026599  15.252320266714904  17.208542635527223  52.267427249187946  14.327746848977464  9.3180985763317  -19.78837928896762  58.76686937435897  18.30231646686332  7.174862751369642  120.000000
1.6065917602996254  0.000000  0.000000  0.000000  -42.908700136394934  15.276956192990113  17.251780371334604  52.226255469685626  14.164511521660527  9.141254128612841  -19.715689958852696  58.9438833662712  18.25032915663849  7.1863112018541235  120.000000
1.646756554307116  0.000000  0.000000  0.000000  -42.965893396562386  15.281850336718794  17.23367796731459  52.15918103157991  14.009327512640105  8.925211748874544  -19.572669904825958  59.02012515618335  18.12360697939744  7.157700115037941  120.000000
1.6869213483146068  0.000000  0.000000  0.000000  -42.99887829509641  15.26475068153307  17.157341493231574  52.06859618138848  13.863367839271616  8.672365487709111  -19.357493050677537  58.98094458629517  17.914748465728994  7.096827846833632  120.000000
1.7270861423220973  0.000000  0.000000  0.000000  -42.99850308164504  15.223224676551725  17.021372142186635  51.95863552410471  13.725217291007773  8.38370270194335  -19.070465398927023  58.804818760921  17.62092259969594  7.018388152273809  120.000000
1.767250936329588  0.000000  0.000000  0.000000  -42.95360435839081  15.154526058220181  16.82028782866638  51.83491923001715  13.591269037270735  8.059217385743725  -18.71386714210157  58.46407165351895  17.243312759690347  6.942106826190573  120.000000
1.8074157303370786  0.000000  0.000000  0.000000  -42.85168129579303  15.05547078776297  16.545108998454616  51.70424659392553  13.456004217052106  7.698372786057756  -18.291693289384643  57.92636334310126  16.786693304208413  6.890572393922485  120.000000
